<svg width="75" height="37" viewBox="0 0 75 37" fill="none" xmlns="http://www.w3.org/2000/svg">
<path d="M7.67871 36H0.305664V0.770508H7.67871V36ZM29.4561 36H22.083V6.84961H11.7803V0.770508H39.7832V6.84961H29.4561V36ZM45.374 5.06738C48.4339 1.7959 52.5762 0.160156 57.8008 0.160156C63.0254 0.160156 67.1595 1.7959 70.2031 5.06738C73.263 8.33887 74.793 12.7822 74.793 18.3975C74.793 23.9964 73.263 28.4316 70.2031 31.7031C67.1432 34.9746 63.0091 36.6104 57.8008 36.6104C52.5762 36.6104 48.4339 34.9746 45.374 31.7031C42.3304 28.4316 40.8086 23.9964 40.8086 18.3975C40.8086 12.7822 42.3304 8.33887 45.374 5.06738ZM64.6855 9.58398C62.9766 7.40299 60.6816 6.3125 57.8008 6.3125C54.9199 6.3125 52.6169 7.40299 50.8916 9.58398C49.1826 11.765 48.3281 14.7028 48.3281 18.3975C48.3281 22.0758 49.1826 25.0055 50.8916 27.1865C52.6006 29.3512 54.9036 30.4336 57.8008 30.4336C60.6816 30.4336 62.9766 29.3512 64.6855 27.1865C66.3945 25.0055 67.249 22.0758 67.249 18.3975C67.249 14.7028 66.3945 11.765 64.6855 9.58398Z" fill="url(#paint0_linear_2_23)"/>
<defs>
<linearGradient id="paint0_linear_2_23" x1="-3" y1="48" x2="87.5295" y2="34.3183" gradientUnits="userSpaceOnUse">
<stop stop-color="#43E97B"/>
<stop offset="0.0001" stop-color="#43E97B"/>
<stop offset="1" stop-color="#38F9D7"/>
</linearGradient>
</defs>
</svg>
